<mxfile host="app.diagrams.net" agent="Mozilla/5.0 (Macintosh; Intel Mac OS X 10_15_7) AppleWebKit/537.36 (KHTML, like Gecko) Chrome/126.0.0.0 Safari/537.36" version="24.7.6">
  <diagram name="Page-1" id="3r1a8BDug0iRuxT-HRfR">
    <mxGraphModel dx="1224" dy="634" grid="1" gridSize="10" guides="1" tooltips="1" connect="1" arrows="1" fold="1" page="1" pageScale="1" pageWidth="827" pageHeight="1169" math="0" shadow="0">
      <root>
        <mxCell id="0" />
        <mxCell id="1" parent="0" />
        <mxCell id="qErXz1thQmx4FykYQ77L-52" value="" style="rounded=0;whiteSpace=wrap;html=1;" vertex="1" parent="1">
          <mxGeometry x="930" y="420" width="170" height="380" as="geometry" />
        </mxCell>
        <mxCell id="qErXz1thQmx4FykYQ77L-3" value="" style="edgeStyle=orthogonalEdgeStyle;rounded=0;orthogonalLoop=1;jettySize=auto;html=1;" edge="1" parent="1" source="qErXz1thQmx4FykYQ77L-1" target="qErXz1thQmx4FykYQ77L-2">
          <mxGeometry relative="1" as="geometry" />
        </mxCell>
        <mxCell id="qErXz1thQmx4FykYQ77L-1" value="PDF" style="rounded=0;whiteSpace=wrap;html=1;" vertex="1" parent="1">
          <mxGeometry x="350" y="300" width="120" height="60" as="geometry" />
        </mxCell>
        <mxCell id="qErXz1thQmx4FykYQ77L-5" value="" style="edgeStyle=orthogonalEdgeStyle;rounded=0;orthogonalLoop=1;jettySize=auto;html=1;" edge="1" parent="1" source="qErXz1thQmx4FykYQ77L-2" target="qErXz1thQmx4FykYQ77L-4">
          <mxGeometry relative="1" as="geometry" />
        </mxCell>
        <mxCell id="qErXz1thQmx4FykYQ77L-2" value="PDF processing as per usecase" style="rounded=0;whiteSpace=wrap;html=1;" vertex="1" parent="1">
          <mxGeometry x="550" y="300" width="120" height="60" as="geometry" />
        </mxCell>
        <mxCell id="qErXz1thQmx4FykYQ77L-7" value="" style="edgeStyle=orthogonalEdgeStyle;rounded=0;orthogonalLoop=1;jettySize=auto;html=1;" edge="1" parent="1" source="qErXz1thQmx4FykYQ77L-4" target="qErXz1thQmx4FykYQ77L-6">
          <mxGeometry relative="1" as="geometry" />
        </mxCell>
        <mxCell id="qErXz1thQmx4FykYQ77L-4" value="Chunking the docs" style="rounded=0;whiteSpace=wrap;html=1;" vertex="1" parent="1">
          <mxGeometry x="750" y="300" width="120" height="60" as="geometry" />
        </mxCell>
        <mxCell id="qErXz1thQmx4FykYQ77L-50" value="" style="edgeStyle=orthogonalEdgeStyle;rounded=0;orthogonalLoop=1;jettySize=auto;html=1;" edge="1" parent="1" source="qErXz1thQmx4FykYQ77L-6">
          <mxGeometry relative="1" as="geometry">
            <mxPoint x="1010" y="420" as="targetPoint" />
          </mxGeometry>
        </mxCell>
        <mxCell id="qErXz1thQmx4FykYQ77L-6" value="Store embeddings" style="rounded=0;whiteSpace=wrap;html=1;" vertex="1" parent="1">
          <mxGeometry x="950" y="300" width="120" height="60" as="geometry" />
        </mxCell>
        <mxCell id="qErXz1thQmx4FykYQ77L-34" value="" style="edgeStyle=orthogonalEdgeStyle;rounded=0;orthogonalLoop=1;jettySize=auto;html=1;" edge="1" parent="1" source="qErXz1thQmx4FykYQ77L-32" target="qErXz1thQmx4FykYQ77L-33">
          <mxGeometry relative="1" as="geometry" />
        </mxCell>
        <mxCell id="qErXz1thQmx4FykYQ77L-36" value="" style="edgeStyle=orthogonalEdgeStyle;rounded=0;orthogonalLoop=1;jettySize=auto;html=1;" edge="1" parent="1" source="qErXz1thQmx4FykYQ77L-32" target="qErXz1thQmx4FykYQ77L-35">
          <mxGeometry relative="1" as="geometry">
            <Array as="points">
              <mxPoint x="710" y="470" />
              <mxPoint x="710" y="570" />
            </Array>
          </mxGeometry>
        </mxCell>
        <mxCell id="qErXz1thQmx4FykYQ77L-39" style="edgeStyle=orthogonalEdgeStyle;rounded=0;orthogonalLoop=1;jettySize=auto;html=1;entryX=0;entryY=0.5;entryDx=0;entryDy=0;" edge="1" parent="1" source="qErXz1thQmx4FykYQ77L-32" target="qErXz1thQmx4FykYQ77L-38">
          <mxGeometry relative="1" as="geometry" />
        </mxCell>
        <mxCell id="qErXz1thQmx4FykYQ77L-41" style="edgeStyle=orthogonalEdgeStyle;rounded=0;orthogonalLoop=1;jettySize=auto;html=1;entryX=0;entryY=0.75;entryDx=0;entryDy=0;" edge="1" parent="1" source="qErXz1thQmx4FykYQ77L-32" target="qErXz1thQmx4FykYQ77L-40">
          <mxGeometry relative="1" as="geometry" />
        </mxCell>
        <mxCell id="qErXz1thQmx4FykYQ77L-32" value="SWOT - 2022" style="rounded=0;whiteSpace=wrap;html=1;" vertex="1" parent="1">
          <mxGeometry x="550" y="440" width="120" height="60" as="geometry" />
        </mxCell>
        <mxCell id="qErXz1thQmx4FykYQ77L-43" value="" style="edgeStyle=orthogonalEdgeStyle;rounded=0;orthogonalLoop=1;jettySize=auto;html=1;" edge="1" parent="1" source="qErXz1thQmx4FykYQ77L-33">
          <mxGeometry relative="1" as="geometry">
            <mxPoint x="930" y="470" as="targetPoint" />
          </mxGeometry>
        </mxCell>
        <mxCell id="qErXz1thQmx4FykYQ77L-33" value="&lt;meta charset=&quot;utf-8&quot;&gt;&lt;span style=&quot;color: rgb(0, 0, 0); font-family: Helvetica; font-size: 12px; font-style: normal; font-variant-ligatures: normal; font-variant-caps: normal; font-weight: 400; letter-spacing: normal; orphans: 2; text-align: center; text-indent: 0px; text-transform: none; widows: 2; word-spacing: 0px; -webkit-text-stroke-width: 0px; white-space: normal; background-color: rgb(251, 251, 251); text-decoration-thickness: initial; text-decoration-style: initial; text-decoration-color: initial; display: inline !important; float: none;&quot;&gt;Strength - Create custom query&lt;/span&gt;" style="rounded=0;whiteSpace=wrap;html=1;" vertex="1" parent="1">
          <mxGeometry x="750" y="440" width="120" height="60" as="geometry" />
        </mxCell>
        <mxCell id="qErXz1thQmx4FykYQ77L-35" value="Weakness - Create custom query" style="rounded=0;whiteSpace=wrap;html=1;" vertex="1" parent="1">
          <mxGeometry x="750" y="540" width="120" height="60" as="geometry" />
        </mxCell>
        <mxCell id="qErXz1thQmx4FykYQ77L-38" value="Opportunities - Create custom query" style="rounded=0;whiteSpace=wrap;html=1;" vertex="1" parent="1">
          <mxGeometry x="750" y="629" width="120" height="60" as="geometry" />
        </mxCell>
        <mxCell id="qErXz1thQmx4FykYQ77L-40" value="Threat - Create custom query" style="rounded=0;whiteSpace=wrap;html=1;" vertex="1" parent="1">
          <mxGeometry x="750" y="720" width="120" height="60" as="geometry" />
        </mxCell>
        <mxCell id="qErXz1thQmx4FykYQ77L-56" value="" style="edgeStyle=orthogonalEdgeStyle;rounded=0;orthogonalLoop=1;jettySize=auto;html=1;" edge="1" parent="1" source="qErXz1thQmx4FykYQ77L-42" target="qErXz1thQmx4FykYQ77L-55">
          <mxGeometry relative="1" as="geometry" />
        </mxCell>
        <mxCell id="qErXz1thQmx4FykYQ77L-42" value="Retrieve docs" style="rounded=0;whiteSpace=wrap;html=1;" vertex="1" parent="1">
          <mxGeometry x="950" y="440" width="120" height="60" as="geometry" />
        </mxCell>
        <mxCell id="qErXz1thQmx4FykYQ77L-44" value="" style="edgeStyle=orthogonalEdgeStyle;rounded=0;orthogonalLoop=1;jettySize=auto;html=1;" edge="1" parent="1">
          <mxGeometry relative="1" as="geometry">
            <mxPoint x="870" y="570" as="sourcePoint" />
            <mxPoint x="930" y="570" as="targetPoint" />
          </mxGeometry>
        </mxCell>
        <mxCell id="qErXz1thQmx4FykYQ77L-58" value="" style="edgeStyle=orthogonalEdgeStyle;rounded=0;orthogonalLoop=1;jettySize=auto;html=1;" edge="1" parent="1" source="qErXz1thQmx4FykYQ77L-45" target="qErXz1thQmx4FykYQ77L-57">
          <mxGeometry relative="1" as="geometry" />
        </mxCell>
        <mxCell id="qErXz1thQmx4FykYQ77L-45" value="Retrieve docs" style="rounded=0;whiteSpace=wrap;html=1;" vertex="1" parent="1">
          <mxGeometry x="950" y="540" width="120" height="60" as="geometry" />
        </mxCell>
        <mxCell id="qErXz1thQmx4FykYQ77L-46" value="" style="edgeStyle=orthogonalEdgeStyle;rounded=0;orthogonalLoop=1;jettySize=auto;html=1;entryX=-0.006;entryY=0.629;entryDx=0;entryDy=0;entryPerimeter=0;" edge="1" parent="1" target="qErXz1thQmx4FykYQ77L-52">
          <mxGeometry relative="1" as="geometry">
            <mxPoint x="870" y="659" as="sourcePoint" />
            <mxPoint x="920" y="659" as="targetPoint" />
          </mxGeometry>
        </mxCell>
        <mxCell id="qErXz1thQmx4FykYQ77L-60" value="" style="edgeStyle=orthogonalEdgeStyle;rounded=0;orthogonalLoop=1;jettySize=auto;html=1;" edge="1" parent="1" source="qErXz1thQmx4FykYQ77L-47" target="qErXz1thQmx4FykYQ77L-59">
          <mxGeometry relative="1" as="geometry" />
        </mxCell>
        <mxCell id="qErXz1thQmx4FykYQ77L-47" value="Retrieve docs" style="rounded=0;whiteSpace=wrap;html=1;" vertex="1" parent="1">
          <mxGeometry x="950" y="629" width="120" height="60" as="geometry" />
        </mxCell>
        <mxCell id="qErXz1thQmx4FykYQ77L-48" value="" style="edgeStyle=orthogonalEdgeStyle;rounded=0;orthogonalLoop=1;jettySize=auto;html=1;" edge="1" parent="1">
          <mxGeometry relative="1" as="geometry">
            <mxPoint x="870" y="750" as="sourcePoint" />
            <mxPoint x="930" y="750" as="targetPoint" />
          </mxGeometry>
        </mxCell>
        <mxCell id="qErXz1thQmx4FykYQ77L-62" value="" style="edgeStyle=orthogonalEdgeStyle;rounded=0;orthogonalLoop=1;jettySize=auto;html=1;" edge="1" parent="1" source="qErXz1thQmx4FykYQ77L-49" target="qErXz1thQmx4FykYQ77L-61">
          <mxGeometry relative="1" as="geometry" />
        </mxCell>
        <mxCell id="qErXz1thQmx4FykYQ77L-49" value="Retrieve docs" style="rounded=0;whiteSpace=wrap;html=1;" vertex="1" parent="1">
          <mxGeometry x="950" y="720" width="120" height="60" as="geometry" />
        </mxCell>
        <mxCell id="qErXz1thQmx4FykYQ77L-64" value="" style="edgeStyle=orthogonalEdgeStyle;rounded=0;orthogonalLoop=1;jettySize=auto;html=1;" edge="1" parent="1" source="qErXz1thQmx4FykYQ77L-55" target="qErXz1thQmx4FykYQ77L-63">
          <mxGeometry relative="1" as="geometry" />
        </mxCell>
        <mxCell id="qErXz1thQmx4FykYQ77L-55" value="Strength prompt" style="rounded=0;whiteSpace=wrap;html=1;" vertex="1" parent="1">
          <mxGeometry x="1150" y="440" width="120" height="60" as="geometry" />
        </mxCell>
        <mxCell id="qErXz1thQmx4FykYQ77L-65" value="" style="edgeStyle=orthogonalEdgeStyle;rounded=0;orthogonalLoop=1;jettySize=auto;html=1;" edge="1" parent="1" source="qErXz1thQmx4FykYQ77L-57" target="qErXz1thQmx4FykYQ77L-63">
          <mxGeometry relative="1" as="geometry" />
        </mxCell>
        <mxCell id="qErXz1thQmx4FykYQ77L-57" value="Weakness prompt" style="rounded=0;whiteSpace=wrap;html=1;" vertex="1" parent="1">
          <mxGeometry x="1150" y="540" width="120" height="60" as="geometry" />
        </mxCell>
        <mxCell id="qErXz1thQmx4FykYQ77L-66" value="" style="edgeStyle=orthogonalEdgeStyle;rounded=0;orthogonalLoop=1;jettySize=auto;html=1;" edge="1" parent="1" source="qErXz1thQmx4FykYQ77L-59" target="qErXz1thQmx4FykYQ77L-63">
          <mxGeometry relative="1" as="geometry" />
        </mxCell>
        <mxCell id="qErXz1thQmx4FykYQ77L-59" value="Opportunity prompt" style="rounded=0;whiteSpace=wrap;html=1;" vertex="1" parent="1">
          <mxGeometry x="1150" y="629" width="120" height="60" as="geometry" />
        </mxCell>
        <mxCell id="qErXz1thQmx4FykYQ77L-67" value="" style="edgeStyle=orthogonalEdgeStyle;rounded=0;orthogonalLoop=1;jettySize=auto;html=1;" edge="1" parent="1" source="qErXz1thQmx4FykYQ77L-61" target="qErXz1thQmx4FykYQ77L-63">
          <mxGeometry relative="1" as="geometry" />
        </mxCell>
        <mxCell id="qErXz1thQmx4FykYQ77L-61" value="Threat prompt" style="rounded=0;whiteSpace=wrap;html=1;" vertex="1" parent="1">
          <mxGeometry x="1150" y="720" width="120" height="60" as="geometry" />
        </mxCell>
        <mxCell id="qErXz1thQmx4FykYQ77L-63" value="Summary" style="rounded=0;whiteSpace=wrap;html=1;" vertex="1" parent="1">
          <mxGeometry x="1350" y="440" width="120" height="340" as="geometry" />
        </mxCell>
      </root>
    </mxGraphModel>
  </diagram>
</mxfile>
